<svg xmlns="http://www.w3.org/2000/svg" viewBox="0 0 166.73 167.99"><defs><style>.cls-1{fill:#00c1aa;}.cls-2{opacity:0.5;}.cls-3{fill:#009688;}.cls-4{fill:#fff;}</style></defs><title>fastapi_sqlalchemy</title><g id="Layer_2" data-name="Layer 2"><g id="Layer_1-2" data-name="Layer 1"><ellipse class="cls-1" cx="83.37" cy="84" rx="83.37" ry="84"/><path class="cls-2" d="M83.58,168A84,84,0,1,1,84.52,0"/><polygon class="cls-3" points="124.38 72.21 84.87 73.47 84.52 0 43.01 95.8 83.52 94.54 83.58 167.99 124.38 72.21"/><path class="cls-4" d="M69.59,103.66a41,41,0,0,0,25.82,7.1,7.43,7.43,0,0,0,7-4.67c3-6.83-1.51-21.31-12.89-19.19Zm40.15-50.52L115,43.89l3.73,2c-2.8,8.92-5.83,17.36-10.92,25.45-2-1.19-3.83-2.25-5.63-3.37-6-3.73-12.2-6.91-19.37-7.47-5.79-.45-11,.92-15.44,5a9.17,9.17,0,0,0-2.89,9.78c1.53,5.9,5,10.4,9.71,14.89L95.53,72a27.34,27.34,0,0,1,15.38,6.51,20.73,20.73,0,0,1,5.1,24.72,40.16,40.16,0,0,1-18.27,18.49,25.49,25.49,0,0,1-10.33,2.34c-12.27.4-24.4-2.38-33.63-7.38L62,102.48c-2.78-3.31-5.85-6.71-8.61-10.34-7.8-10.24-7.08-20.08,2.28-28.95a72.23,72.23,0,0,1,22.6-14.47,26.77,26.77,0,0,1,22,.41C103.18,50.43,106.12,51.61,109.74,53.14Z"/></g></g></svg>